<svg width="16" height="14" viewBox="0 0 16 14" fill="none" xmlns="http://www.w3.org/2000/svg">
<path d="M13.8628 0H2.13709C0.961125 0 0 0.906321 0 2.01523V8.57273C0 9.69231 0.961125 10.588 2.13709 10.588H6.27558L7.689 13.7334C7.689 13.7334 7.79077 14 8.01691 14C8.25437 14 8.34483 13.7334 8.34483 13.7334L9.75824 10.6093H13.8628C15.0501 10.6093 15.9999 9.70297 15.9999 8.59406V2.01523C16.0112 0.906321 15.0501 0 13.8628 0ZM5.03177 5.80046C5.02046 6.99467 3.70881 7.03732 3.70881 7.03732C3.19998 7.03732 2.9173 6.71744 2.9173 6.71744V6.93069H1.95617V3.20944C2.01271 3.22011 2.9173 3.20944 2.9173 3.20944V4.63823C3.14344 4.2757 3.79927 4.28637 3.79927 4.28637C5.20138 4.40366 5.03177 5.80046 5.03177 5.80046ZM6.71657 4.39299V6.94136H5.77806V4.41432C5.77806 4.07311 5.32576 3.97715 5.32576 3.97715V3.08149C6.81833 3.14547 6.71657 4.39299 6.71657 4.39299ZM8.93281 7.03732C8.06214 7.03732 7.36109 6.42955 7.36109 5.67251C7.36109 4.91546 8.06214 4.30769 8.93281 4.30769C9.80347 4.30769 10.5045 4.91546 10.5045 5.67251C10.5045 6.42955 9.80347 7.03732 8.93281 7.03732ZM14.0777 7.03732C14.0777 7.03732 14.089 8.33816 12.6982 8.33816H12.2685V7.49581H12.5285C12.5285 7.49581 13.1165 7.54912 13.1052 6.69612C13.1052 6.69612 12.9921 7.03732 12.1667 7.03732C12.1667 7.03732 11.0021 6.96268 11.0021 5.88576V5.48058C11.0021 5.48058 11.0247 4.37167 12.3137 4.2757C12.3137 4.2757 12.8225 4.22239 13.1278 4.61691V4.33968H14.0777V7.03732Z" fill="white"/>
</svg>
