<svg width="18" height="18" viewBox="0 0 18 18" fill="none" xmlns="http://www.w3.org/2000/svg">
<path fill-rule="evenodd" clip-rule="evenodd" d="M9 0C13.9711 0 18 4.05345 18 9.05482C18 13.5529 14.7417 17.284 10.4697 17.9898V11.6725H12.5795L12.981 9.05505H12.9023L12.9023 9.05482H10.4697V7.35728C10.4697 6.64102 10.8198 5.94246 11.9446 5.94246H13.0871V3.71412C13.0871 3.71412 12.0507 3.53727 11.0603 3.53727C11.0588 3.53727 11.0572 3.53727 11.0557 3.53727C11.0349 3.53712 11.0141 3.53704 10.9934 3.53704C8.93672 3.53704 7.59375 4.79092 7.59375 7.05993V9.05482H5.30859V11.6722H5.34094V11.6725H7.59375V18C3.29062 17.3209 0 13.5752 0 9.05482C0 4.05345 4.02891 0 9 0Z" fill="white"/>
</svg>
