<svg width="22" height="22" viewBox="0 0 22 22" fill="none" xmlns="http://www.w3.org/2000/svg">
<path d="M21 11C21 12.3133 20.7414 13.6137 20.2388 14.827C19.7362 16.0404 18.9996 17.1428 18.0709 18.0714C17.1423 19.0001 16.0399 19.7367 14.8265 20.2393C13.6132 20.7418 12.3128 21.0005 10.9995 21.0005C9.68624 21.0005 8.38581 20.7418 7.1725 20.2393C5.95918 19.7367 4.85673 19.0001 3.9281 18.0714C2.99947 17.1428 2.26284 16.0404 1.76027 14.827C1.25769 13.6137 0.999023 12.3133 0.999023 11C0.999023 8.34771 2.05264 5.80405 3.9281 3.92859C5.80356 2.05313 8.34723 0.999512 10.9995 0.999512C13.6518 0.999512 16.1955 2.05313 18.0709 3.92859C19.9464 5.80405 21 8.34771 21 11Z" stroke="#1F1F1F" stroke-width="1.5"/>
<path d="M15.0001 11C15.0001 12.313 14.8961 13.614 14.6951 14.827C14.4951 16.04 14.2001 17.142 13.8281 18.071C13.4571 19 13.0161 19.736 12.5311 20.239C12.0451 20.741 11.5251 21 11.0001 21C10.4751 21 9.95505 20.741 9.47005 20.239C8.98405 19.736 8.54305 18.999 8.17205 18.071C7.80005 17.142 7.50505 16.041 7.30405 14.827C7.09902 13.5617 6.99735 12.2818 7.00005 11C7.00005 9.687 7.10305 8.386 7.30405 7.173C7.50505 5.96 7.80005 4.858 8.17205 3.929C8.54305 3 8.98405 2.264 9.46905 1.761C9.95505 1.26 10.4751 1 11.0001 1C11.5251 1 12.0451 1.259 12.5301 1.761C13.0161 2.264 13.4571 3.001 13.8281 3.929C14.2001 4.858 14.4951 5.959 14.6951 7.173C14.8961 8.386 15.0001 9.687 15.0001 11Z" stroke="#1F1F1F" stroke-width="1.5"/>
<path d="M1 11H21" stroke="#1F1F1F" stroke-width="1.5" stroke-linecap="round"/>
</svg>
