<svg width="16" height="16" viewBox="0 0 16 16" fill="none" xmlns="http://www.w3.org/2000/svg">
<path d="M15.4012 0H0.598616C0.267975 0 0 0.267978 0 0.598623V15.4013C0 15.7321 0.267975 16 0.598616 16H15.4014C15.7321 16 16 15.732 16 15.4013V0.598623C15.9998 0.267978 15.7318 0 15.4012 0ZM4.25079 13.166C4.25079 13.3864 4.07219 13.565 3.85172 13.565H2.254C2.03373 13.565 1.85493 13.3864 1.85493 13.166V6.18258C1.85493 5.96207 2.03373 5.7835 2.254 5.7835H3.85172C4.07219 5.7835 4.25079 5.96207 4.25079 6.18258V13.166ZM4.25079 4.15642C4.25079 4.37693 4.07219 4.5555 3.85172 4.5555H2.254C2.03373 4.5555 1.85493 4.3769 1.85493 4.15642V2.73769C1.85493 2.51719 2.03373 2.33861 2.254 2.33861H3.85172C4.07219 2.33861 4.25079 2.51719 4.25079 2.73769V4.15642ZM14.1449 13.166C14.1449 13.3864 13.9661 13.565 13.7458 13.565H12.1481C11.9276 13.565 11.749 13.3864 11.749 13.166V10.2173C11.749 9.23957 11.698 8.6072 11.5954 8.32008C11.493 8.03293 11.3269 7.80985 11.0966 7.65084C10.8663 7.49159 10.5893 7.41217 10.2653 7.41217C9.85026 7.41217 9.47792 7.52589 9.14826 7.75318C8.81863 7.98067 8.59275 8.28174 8.47042 8.65689C8.34831 9.03204 8.28724 9.72564 8.28724 10.7373V13.166C8.28724 13.3864 8.10848 13.565 7.88817 13.565H6.29046C6.07018 13.565 5.89138 13.3864 5.89138 13.166V6.18258C5.89138 5.96207 6.07015 5.7835 6.29046 5.7835H7.71758C7.93808 5.7835 8.11666 5.96207 8.11666 6.18258V6.71456C8.11666 6.93506 8.22464 6.97057 8.37286 6.80755C9.11833 5.98842 10.0276 5.57877 11.101 5.57877C11.6296 5.57877 12.1126 5.67394 12.5504 5.86432C12.988 6.05467 13.3192 6.29771 13.5437 6.59324C13.7682 6.88873 13.9246 7.22417 14.0126 7.59932C14.1006 7.97444 14.1449 8.5116 14.1449 9.21084L14.1449 13.166Z" fill="#141414"/>
</svg>
