<svg width="16" height="15" viewBox="0 0 16 15" fill="none" xmlns="http://www.w3.org/2000/svg">
<g filter="url(#filter0_d_1_194)">
<path d="M16 2.03811C15.4113 2.29945 14.7787 2.47545 14.1147 2.55478C14.7927 2.14878 15.3133 1.50545 15.558 0.738779C14.924 1.11478 14.2213 1.38811 13.4733 1.53545C12.8753 0.897446 12.0213 0.498779 11.0773 0.498779C8.958 0.498779 7.40067 2.47611 7.87933 4.52878C5.152 4.39211 2.73333 3.08545 1.114 1.09945C0.254 2.57478 0.668 4.50478 2.12933 5.48211C1.592 5.46478 1.08533 5.31745 0.643333 5.07145C0.607333 6.59211 1.69733 8.01478 3.276 8.33145C2.814 8.45678 2.308 8.48611 1.79333 8.38745C2.21067 9.69145 3.42267 10.6401 4.86 10.6668C3.48 11.7488 1.74133 12.2321 0 12.0268C1.45267 12.9581 3.17867 13.5014 5.032 13.5014C11.1267 13.5014 14.57 8.35411 14.362 3.73745C15.0033 3.27411 15.56 2.69611 16 2.03811V2.03811Z" fill="white"/>
</g>
<defs>
<filter id="filter0_d_1_194" x="-4" y="0.498779" width="24" height="21.0027" filterUnits="userSpaceOnUse" color-interpolation-filters="sRGB">
<feFlood flood-opacity="0" result="BackgroundImageFix"/>
<feColorMatrix in="SourceAlpha" type="matrix" values="0 0 0 0 0 0 0 0 0 0 0 0 0 0 0 0 0 0 127 0" result="hardAlpha"/>
<feOffset dy="4"/>
<feGaussianBlur stdDeviation="2"/>
<feComposite in2="hardAlpha" operator="out"/>
<feColorMatrix type="matrix" values="0 0 0 0 0 0 0 0 0 0 0 0 0 0 0 0 0 0 0.25 0"/>
<feBlend mode="normal" in2="BackgroundImageFix" result="effect1_dropShadow_1_194"/>
<feBlend mode="normal" in="SourceGraphic" in2="effect1_dropShadow_1_194" result="shape"/>
</filter>
</defs>
</svg>
