<svg width="38" height="42" viewBox="0 0 38 42" fill="none" xmlns="http://www.w3.org/2000/svg">
<path d="M35.9686 20.921H1.24121V35.2894H35.9686V20.921Z" stroke="white" stroke-width="2" stroke-miterlimit="10" stroke-linecap="round" stroke-linejoin="round"/>
<path d="M28.9894 5.76318H8.30431C6.20217 5.76318 4.43637 7.10529 4.01594 9.00003L1.3252 20.8421H36.0526L33.3619 9.00003C32.8574 7.18424 31.0075 5.76318 28.9894 5.76318Z" stroke="white" stroke-width="2" stroke-miterlimit="10" stroke-linecap="round" stroke-linejoin="round"/>
<path d="M22.4312 1.1842H14.6953V5.76315H22.4312V1.1842Z" stroke="white" stroke-width="2" stroke-miterlimit="10" stroke-linecap="round" stroke-linejoin="round"/>
<path d="M10.4063 27.1579C10.4063 28.421 9.31316 29.4474 7.96778 29.4474C6.62241 29.4474 5.5293 28.421 5.5293 27.1579C5.5293 25.8947 6.62241 24.8684 7.96778 24.8684C9.31316 24.8684 10.4063 25.8947 10.4063 27.1579Z" stroke="white" stroke-width="2" stroke-miterlimit="10" stroke-linecap="round" stroke-linejoin="round"/>
<path d="M32.2686 27.1579C32.2686 28.421 31.1755 29.4474 29.8301 29.4474C28.4847 29.4474 27.3916 28.421 27.3916 27.1579C27.3916 25.8947 28.4847 24.8684 29.8301 24.8684C31.1755 24.8684 32.2686 25.8947 32.2686 27.1579Z" stroke="white" stroke-width="2" stroke-miterlimit="10" stroke-linecap="round" stroke-linejoin="round"/>
<path d="M6.03446 40.8157C5.02543 40.8157 4.18457 40.0263 4.18457 39.0789V35.2894H7.88434V39.0789C7.96843 40.0263 7.12757 40.8157 6.03446 40.8157Z" stroke="white" stroke-width="2" stroke-miterlimit="10" stroke-linecap="round" stroke-linejoin="round"/>
<path d="M31.68 40.8157C30.6709 40.8157 29.8301 40.0263 29.8301 39.0789V35.2894H33.5299V39.0789C33.5299 40.0263 32.689 40.8157 31.68 40.8157Z" stroke="white" stroke-width="2" stroke-miterlimit="10" stroke-linecap="round" stroke-linejoin="round"/>
</svg>
