<svg width="16" height="16" viewBox="0 0 16 16" fill="none" xmlns="http://www.w3.org/2000/svg">
<path d="M7.05352 15.6133L0.386854 8.94663C0.265467 8.81982 0.170314 8.6703 0.106854 8.50663C-0.026503 8.18201 -0.0265031 7.81791 0.106854 7.4933C0.170313 7.32963 0.265467 7.1801 0.386854 7.0533L7.05352 0.386629C7.17784 0.262311 7.32543 0.163697 7.48785 0.0964161C7.65028 0.0291357 7.82438 -0.00549351 8.00019 -0.00549351C8.35526 -0.00549353 8.69578 0.135557 8.94685 0.386629C9.19793 0.6377 9.33898 0.978226 9.33898 1.3333C9.33898 1.68836 9.19793 2.02889 8.94685 2.27996L4.54685 6.66663L14.6669 6.66663C15.0205 6.66663 15.3596 6.8071 15.6097 7.05715C15.8597 7.3072 16.0002 7.64634 16.0002 7.99996C16.0002 8.35358 15.8597 8.69272 15.6097 8.94277C15.3596 9.19282 15.0205 9.33329 14.6669 9.33329L4.54685 9.33329L8.94686 13.72C9.07183 13.8439 9.17102 13.9914 9.23871 14.1539C9.3064 14.3163 9.34125 14.4906 9.34125 14.6666C9.34125 14.8426 9.3064 15.0169 9.23871 15.1794C9.17102 15.3419 9.07183 15.4893 8.94686 15.6133C8.8229 15.7383 8.67544 15.8375 8.51296 15.9052C8.35048 15.9728 8.1762 16.0077 8.00019 16.0077C7.82417 16.0077 7.6499 15.9728 7.48742 15.9052C7.32494 15.8375 7.17747 15.7383 7.05352 15.6133Z" fill="black"/>
</svg>
