<svg width="16" height="16" viewBox="0 0 16 16" fill="none" xmlns="http://www.w3.org/2000/svg">
<path d="M7.26467 12.765C7.3349 12.6947 7.37434 12.5994 7.37434 12.5C7.37434 12.4006 7.3349 12.3053 7.26467 12.235L3.4053 8.37498L13.4997 8.37498C13.5991 8.37498 13.6945 8.33548 13.7648 8.26515C13.8352 8.19482 13.8747 8.09944 13.8747 7.99998C13.8747 7.90053 13.8352 7.80515 13.7648 7.73482C13.6945 7.66449 13.5991 7.62498 13.4997 7.62498L3.4053 7.62498L7.26467 3.76498C7.33091 3.6939 7.36697 3.59987 7.36526 3.50272C7.36354 3.40557 7.32419 3.31288 7.25548 3.24417C7.18677 3.17547 7.09408 3.13611 6.99693 3.1344C6.89978 3.13268 6.80576 3.16874 6.73467 3.23498L2.23467 7.73498C2.16444 7.8053 2.125 7.90061 2.125 7.99998C2.125 8.09936 2.16444 8.19467 2.23467 8.26498L6.73467 12.765C6.80498 12.8352 6.90029 12.8747 6.99967 12.8747C7.09905 12.8747 7.19436 12.8352 7.26467 12.765Z" fill="black"/>
</svg>
